<svg xmlns="http://www.w3.org/2000/svg" viewBox="0 0 247.364 95.228">
  <g id="Group_93" data-name="Group 93" transform="translate(-1750.1 94.984)">
    <g id="Group_7" data-name="Group 7" transform="translate(1750.1 -94.984)">
      <g id="Group_5" data-name="Group 5" transform="translate(101.122 57.136)">
        <path id="Path_4" data-name="Path 4" d="M51.4,25.4h3.174l6.8,19.726H58.657L56.617,39H49.588l-2.267,5.9H44.6ZM55.71,36.737,53.9,31.068c-.453-1.36-.68-2.494-1.134-3.628h0c-.227,1.134-.68,2.267-.907,3.628l-1.814,5.668Z" transform="translate(-44.6 -24.947)"/>
        <path id="Path_5" data-name="Path 5" d="M56.8,25.753a31.257,31.257,0,0,1,4.988-.453c2.721,0,4.535.453,5.668,1.587a5.47,5.47,0,0,1,1.587,3.854,5.172,5.172,0,0,1-3.628,4.988h0c1.587.453,2.494,2.041,2.947,3.854a34.859,34.859,0,0,0,1.587,5.442H67.23c-.227-.453-.68-2.267-1.36-4.761-.68-2.721-1.587-3.628-3.854-3.854H59.521v8.616H57.027V25.753ZM61.788,34.6c2.721,0,4.308-1.587,4.308-3.628,0-2.494-1.814-3.628-4.535-3.628a23.614,23.614,0,0,0-2.494.227v7.255h2.721Z" transform="translate(-29.139 -25.073)"/>
        <path id="Path_6" data-name="Path 6" d="M72.4,27.567H66.5V25.3H81.011v2.267H74.889V45.026H72.4V27.567Z" transform="translate(-16.846 -25.073)"/>
        <path id="Path_7" data-name="Path 7" d="M76.6,35.4c0-6.122,3.854-10.2,9.3-10.2,5.668,0,8.843,4.535,8.843,10.2,0,6.575-4.081,10.2-9.069,10.2C80,45.606,76.6,41.3,76.6,35.4Zm15.191,0c0-4.081-2.041-8.162-6.348-8.162-4.081,0-6.348,3.628-6.348,8.162s2.267,8.162,6.348,8.162C89.75,43.565,91.791,39.711,91.791,35.4Z" transform="translate(-4.046 -25.2)"/>
        <path id="Path_8" data-name="Path 8" d="M89.1,35.4c0-5.9,4.081-10.2,10.656-10.2a12.135,12.135,0,0,1,4.988.907l-.68,2.041a10.18,10.18,0,0,0-4.308-.907c-4.761,0-7.936,2.948-7.936,7.936s2.948,7.936,7.482,7.936a11.046,11.046,0,0,0,3.4-.453v-5.9H98.849V34.723h6.575v9.523A17.171,17.171,0,0,1,99.3,45.379c-2.948,0-5.442-.68-7.255-2.494C90.007,41.3,89.1,38.577,89.1,35.4Z" transform="translate(11.796 -25.2)"/>
        <path id="Path_9" data-name="Path 9" d="M101,35.4c0-6.122,3.854-10.2,9.3-10.2,5.668,0,8.843,4.535,8.843,10.2,0,6.575-4.081,10.2-9.069,10.2C104.4,45.606,101,41.3,101,35.4Zm15.191,0c0-4.081-2.041-8.162-6.348-8.162-4.081,0-6.348,3.628-6.348,8.162s2.267,8.162,6.348,8.162C114.15,43.565,116.191,39.711,116.191,35.4Z" transform="translate(26.877 -25.2)"/>
      </g>
      <g id="Group_6" data-name="Group 6" transform="translate(102.029 11.11)">
        <path id="Path_10" data-name="Path 10" d="M49.988,11.1H45V9.735h4.988V5.427h2.721V9.735h2.267V5.2H57.7V9.508h3.174V5.427h2.721V9.735h1.814V5.2h2.721V9.508h5.668V11.1H68.127v2.267c0,.907.227,1.36,1.587,1.36a4.743,4.743,0,0,0,3.174-.68l1.134,2.267c-1.134.907-3.174,1.134-4.988,1.134-3.4-.227-3.854-.907-3.854-3.4V11.1H63.365v5.668H54.749V11.1H52.482c-.453,3.4-1.814,5.9-7.029,7.255L45,17.444C48.174,16.083,49.761,14.269,49.988,11.1ZM45.453,18.8H73.341v6.122H70.394V20.391H60.871v3.4h8.616v6.8c0,2.948-2.721,4.081-7.482,1.36l.227-1.134c4.081.907,4.308.227,4.308-1.36V25.152H60.871V36.489H57.924V25.152H52.482v9.3H49.761V23.565h8.162v-3.4H48.4V24.7H45.453V18.8ZM57.7,15.176h3.174V11.1H57.7Z" transform="translate(-45 -4.52)"/>
        <path id="Path_11" data-name="Path 11" d="M69.436,13.516V37.1H66.488V18.05a18.43,18.43,0,0,1-4.081,4.308l-.907-.907A40.6,40.6,0,0,0,68.755,4.9l3.4.907A34.116,34.116,0,0,1,69.436,13.516Zm13.831-.227V33.922c0,3.174-3.174,4.988-9.069.453l.453-1.134c5.215,1.814,5.668,1.134,5.668-.453v-19.5H75.784a29.833,29.833,0,0,1-4.308,6.575l-1.134-.68c2.494-4.081,3.628-8.162,4.308-13.6l3.4.68A25.563,25.563,0,0,1,76.238,11.7H87.8l.68-.453,3.628,2.041A36.912,36.912,0,0,1,87.121,18.5l-.907-.907a10.791,10.791,0,0,0,1.814-4.081H83.266Zm-5.215,7.482a34.1,34.1,0,0,1-6.575,12.244l-.907-.68a36.954,36.954,0,0,0,4.308-12.47Zm14.738,10.2-3.4,1.36a123.8,123.8,0,0,0-4.081-12.017l1.134-.68A80.034,80.034,0,0,1,92.789,30.974Z" transform="translate(-24.089 -4.9)"/>
        <path id="Path_12" data-name="Path 12" d="M91.724,17.47l-2.041,2.721H105.1V36.742h-3.174V34.475H89v2.267H86.055V23.819a28.269,28.269,0,0,1-6.8,4.761l-.453-.907a32.3,32.3,0,0,0,9.749-10.2H79.934V15.883h9.523a8.382,8.382,0,0,0,1.134-2.494H81.747v-1.36H91.27c.227-.68.453-1.36.68-2.267a81.788,81.788,0,0,1-10.43.227l-.227-1.134C91.27,8.4,98.072,6.814,103.06,5l3.174,2.721A85.593,85.593,0,0,1,95.578,9.535c-.227.907-.453,1.587-.68,2.494h12.244v1.587h-12.7a13.542,13.542,0,0,1-1.36,2.494h16.1V17.7H91.724Zm10.2,4.308H89V24.5h12.924Zm0,4.081H89V28.58h12.924Zm0,4.308H89v2.948h12.924Z" transform="translate(-2.165 -4.773)"/>
        <path id="Path_13" data-name="Path 13" d="M125.829,32.428l-1.814,3.4A17.341,17.341,0,0,1,112,23.812h-3.4v7.255c2.267-.227,4.308-.453,5.668-.68l.227,1.134a51.018,51.018,0,0,1-12.243,3.174l-.907-3.4a28.91,28.91,0,0,0,4.308-.227V23.812h-4.081c-.68,5.442-2.041,9.3-4.761,12.244l-.907-.68c3.174-5.668,2.947-12.47,2.947-22.673V5.9h23.807v6.348H102.022v2.494c0,2.721,0,5.215-.227,7.482h5.668V17.917H102.7V16.33h4.761V13.155h2.948v3.4h4.761v-3.4h2.947v3.4h5.9v1.587h-5.9v4.308h7.029v1.587H113.585a13.1,13.1,0,0,0,2.947,4.535,23.168,23.168,0,0,0,4.081-4.081l2.721,2.041a41.86,41.86,0,0,1-5.9,2.721A19.284,19.284,0,0,0,125.829,32.428Zm-23.807-21.54H119.48v-3.4H102.022Zm8.389,11.563h4.761V18.144h-4.761Z" transform="translate(19.506 -3.633)"/>
      </g>
      <path id="Path_14" data-name="Path 14" d="M72.1,28.115,61.9,22.673V.453h0V0H0V88.425H57.136l12.47,5.668,2.721,1.134ZM37.184,11.337v65.3H11.11v-65.3Zm3.854,0h9.749v5.215ZM39.9,77.316V13.831L69.38,29.7V91.146ZM2.721,85.478V2.721H59.4V21.313l-5.9-3.174v-9.3H8.389V79.356H38.318l13.15,6.122Z"/>
    </g>
  </g>
</svg>
